<mxfile host="65bd71144e" modified="2021-01-24T03:57:47.494Z" agent="5.0 (Macintosh; Intel Mac OS X 11_0_0) AppleWebKit/537.36 (KHTML, like Gecko) Code/1.52.1 Chrome/83.0.4103.122 Electron/9.3.5 Safari/537.36" version="13.10.0" etag="cYqvHJb95SoXN4VqjsCH" type="embed">
    <diagram id="tIsTIddDbS0N53HthP2z" name="第 1 页">
        <mxGraphModel dx="1685" dy="584" grid="1" gridSize="10" guides="1" tooltips="1" connect="1" arrows="1" fold="1" page="1" pageScale="1" pageWidth="827" pageHeight="1169" math="0" shadow="0">
            <root>
                <mxCell id="0"/>
                <mxCell id="1" parent="0"/>
                <mxCell id="99" value="" style="rounded=0;whiteSpace=wrap;html=1;strokeColor=#000000;" vertex="1" parent="1">
                    <mxGeometry x="380" y="1440" width="280" height="210" as="geometry"/>
                </mxCell>
                <mxCell id="2" value="1.0" style="ellipse;whiteSpace=wrap;html=1;aspect=fixed;" vertex="1" parent="1">
                    <mxGeometry x="80" y="80" width="80" height="80" as="geometry"/>
                </mxCell>
                <mxCell id="3" value="2.0" style="ellipse;whiteSpace=wrap;html=1;aspect=fixed;" vertex="1" parent="1">
                    <mxGeometry x="440" y="80" width="80" height="80" as="geometry"/>
                </mxCell>
                <mxCell id="4" value="3.0" style="ellipse;whiteSpace=wrap;html=1;aspect=fixed;" vertex="1" parent="1">
                    <mxGeometry x="1370" y="100" width="80" height="80" as="geometry"/>
                </mxCell>
                <mxCell id="6" value="静态文件托管&lt;br&gt;server" style="ellipse;shape=cloud;whiteSpace=wrap;html=1;" vertex="1" parent="1">
                    <mxGeometry x="40" y="200" width="120" height="80" as="geometry"/>
                </mxCell>
                <mxCell id="7" value="浏览器&lt;br&gt;&lt;br&gt;就是，静态的，网页" style="rounded=0;whiteSpace=wrap;html=1;" vertex="1" parent="1">
                    <mxGeometry x="280" y="210" width="120" height="60" as="geometry"/>
                </mxCell>
                <mxCell id="8" value="" style="shape=flexArrow;endArrow=classic;html=1;entryX=0;entryY=0.5;entryDx=0;entryDy=0;exitX=0.875;exitY=0.5;exitDx=0;exitDy=0;exitPerimeter=0;" edge="1" parent="1" source="6" target="7">
                    <mxGeometry width="50" height="50" relative="1" as="geometry">
                        <mxPoint x="150" y="330" as="sourcePoint"/>
                        <mxPoint x="200" y="280" as="targetPoint"/>
                    </mxGeometry>
                </mxCell>
                <mxCell id="24" style="edgeStyle=orthogonalEdgeStyle;rounded=0;orthogonalLoop=1;jettySize=auto;html=1;exitX=0.55;exitY=0.95;exitDx=0;exitDy=0;exitPerimeter=0;" edge="1" parent="1" source="9" target="23">
                    <mxGeometry relative="1" as="geometry">
                        <Array as="points">
                            <mxPoint x="5" y="730"/>
                        </Array>
                    </mxGeometry>
                </mxCell>
                <mxCell id="9" value="静态文件托管&lt;br&gt;server&lt;br&gt;&lt;br&gt;+&amp;nbsp;&lt;br&gt;&lt;br&gt;脚本语言，能根据&lt;br&gt;路径/http方法/以及他其它参数，&lt;br&gt;处理请求&lt;br&gt;并，返回（html，string，跳转）" style="ellipse;shape=cloud;whiteSpace=wrap;html=1;" vertex="1" parent="1">
                    <mxGeometry x="-210" y="320" width="390" height="200" as="geometry"/>
                </mxCell>
                <mxCell id="10" value="浏览器&lt;br&gt;&lt;br&gt;就是，静态的，网页" style="rounded=0;whiteSpace=wrap;html=1;" vertex="1" parent="1">
                    <mxGeometry x="280" y="390" width="120" height="60" as="geometry"/>
                </mxCell>
                <mxCell id="11" value="" style="shape=flexArrow;endArrow=classic;html=1;entryX=0;entryY=0.5;entryDx=0;entryDy=0;exitX=0.875;exitY=0.5;exitDx=0;exitDy=0;exitPerimeter=0;" edge="1" parent="1" source="9" target="10">
                    <mxGeometry width="50" height="50" relative="1" as="geometry">
                        <mxPoint x="150" y="450" as="sourcePoint"/>
                        <mxPoint x="200" y="400" as="targetPoint"/>
                    </mxGeometry>
                </mxCell>
                <mxCell id="12" value="" style="endArrow=classic;html=1;" edge="1" parent="1">
                    <mxGeometry width="50" height="50" relative="1" as="geometry">
                        <mxPoint x="410" y="160" as="sourcePoint"/>
                        <mxPoint x="410" y="600" as="targetPoint"/>
                    </mxGeometry>
                </mxCell>
                <mxCell id="13" value="动画效果，&lt;br&gt;ui变化，&lt;br&gt;与数据相对无关的内容" style="edgeLabel;html=1;align=center;verticalAlign=middle;resizable=0;points=[];" vertex="1" connectable="0" parent="12">
                    <mxGeometry x="-0.2598" y="-2" relative="1" as="geometry">
                        <mxPoint y="27" as="offset"/>
                    </mxGeometry>
                </mxCell>
                <mxCell id="25" style="edgeStyle=orthogonalEdgeStyle;rounded=0;orthogonalLoop=1;jettySize=auto;html=1;entryX=0.5;entryY=0;entryDx=0;entryDy=0;" edge="1" parent="1" source="16" target="23">
                    <mxGeometry relative="1" as="geometry">
                        <Array as="points">
                            <mxPoint x="690" y="700"/>
                        </Array>
                    </mxGeometry>
                </mxCell>
                <mxCell id="27" value="数据" style="edgeLabel;html=1;align=center;verticalAlign=middle;resizable=0;points=[];" vertex="1" connectable="0" parent="25">
                    <mxGeometry x="-0.7" y="-1" relative="1" as="geometry">
                        <mxPoint as="offset"/>
                    </mxGeometry>
                </mxCell>
                <mxCell id="28" value="数据" style="edgeLabel;html=1;align=center;verticalAlign=middle;resizable=0;points=[];" vertex="1" connectable="0" parent="25">
                    <mxGeometry x="0.4489" y="-2" relative="1" as="geometry">
                        <mxPoint as="offset"/>
                    </mxGeometry>
                </mxCell>
                <mxCell id="26" style="edgeStyle=orthogonalEdgeStyle;rounded=0;orthogonalLoop=1;jettySize=auto;html=1;entryX=0.25;entryY=0;entryDx=0;entryDy=0;" edge="1" parent="1" target="23">
                    <mxGeometry relative="1" as="geometry">
                        <mxPoint x="690" y="530" as="sourcePoint"/>
                        <Array as="points">
                            <mxPoint x="635" y="560"/>
                            <mxPoint x="635" y="560"/>
                        </Array>
                    </mxGeometry>
                </mxCell>
                <mxCell id="29" value="模版语言" style="edgeLabel;html=1;align=center;verticalAlign=middle;resizable=0;points=[];" vertex="1" connectable="0" parent="26">
                    <mxGeometry x="0.2034" y="-2" relative="1" as="geometry">
                        <mxPoint as="offset"/>
                    </mxGeometry>
                </mxCell>
                <mxCell id="16" value="静态文件托管&lt;br&gt;server&lt;br&gt;&lt;br&gt;+&amp;nbsp;&lt;br&gt;&lt;br&gt;脚本语言，能根据&lt;br&gt;路径/http方法/以及他其它参数，&lt;br&gt;处理请求&lt;br&gt;并，返回（html，string，跳转）" style="ellipse;shape=cloud;whiteSpace=wrap;html=1;" vertex="1" parent="1">
                    <mxGeometry x="470" y="200" width="390" height="200" as="geometry"/>
                </mxCell>
                <mxCell id="17" value="浏览器&lt;br&gt;&lt;br&gt;就是，&lt;br&gt;静态的网页&lt;br&gt;+&lt;br&gt;js出后的内容" style="rounded=0;whiteSpace=wrap;html=1;" vertex="1" parent="1">
                    <mxGeometry x="960" y="190" width="120" height="140" as="geometry"/>
                </mxCell>
                <mxCell id="18" value="" style="shape=flexArrow;endArrow=classic;html=1;entryX=0;entryY=0.5;entryDx=0;entryDy=0;exitX=0.875;exitY=0.5;exitDx=0;exitDy=0;exitPerimeter=0;" edge="1" parent="1" source="16" target="17">
                    <mxGeometry width="50" height="50" relative="1" as="geometry">
                        <mxPoint x="830" y="330" as="sourcePoint"/>
                        <mxPoint x="880" y="280" as="targetPoint"/>
                    </mxGeometry>
                </mxCell>
                <mxCell id="31" value="异步后，&lt;br&gt;修改网页" style="edgeStyle=orthogonalEdgeStyle;rounded=0;orthogonalLoop=1;jettySize=auto;html=1;entryX=1;entryY=0.5;entryDx=0;entryDy=0;" edge="1" parent="1" source="19" target="17">
                    <mxGeometry relative="1" as="geometry">
                        <Array as="points">
                            <mxPoint x="1120" y="340"/>
                            <mxPoint x="1120" y="260"/>
                        </Array>
                    </mxGeometry>
                </mxCell>
                <mxCell id="19" value="异步请求" style="shape=process;whiteSpace=wrap;html=1;backgroundOutline=1;" vertex="1" parent="1">
                    <mxGeometry x="960" y="330" width="120" height="20" as="geometry"/>
                </mxCell>
                <mxCell id="20" value="" style="endArrow=classic;startArrow=classic;html=1;entryX=0;entryY=0.5;entryDx=0;entryDy=0;exitX=0.96;exitY=0.7;exitDx=0;exitDy=0;exitPerimeter=0;" edge="1" parent="1" source="16" target="19">
                    <mxGeometry width="50" height="50" relative="1" as="geometry">
                        <mxPoint x="850" y="400" as="sourcePoint"/>
                        <mxPoint x="900" y="350" as="targetPoint"/>
                    </mxGeometry>
                </mxCell>
                <mxCell id="21" value="数据" style="edgeLabel;html=1;align=center;verticalAlign=middle;resizable=0;points=[];" vertex="1" connectable="0" parent="20">
                    <mxGeometry x="-0.312" y="-2" relative="1" as="geometry">
                        <mxPoint as="offset"/>
                    </mxGeometry>
                </mxCell>
                <mxCell id="22" value="前端的东西，变得多起来" style="text;html=1;strokeColor=none;fillColor=none;align=center;verticalAlign=middle;whiteSpace=wrap;rounded=0;" vertex="1" parent="1">
                    <mxGeometry x="960" y="150" width="150" height="20" as="geometry"/>
                </mxCell>
                <mxCell id="30" value="html" style="edgeStyle=orthogonalEdgeStyle;rounded=0;orthogonalLoop=1;jettySize=auto;html=1;" edge="1" parent="1" source="23">
                    <mxGeometry relative="1" as="geometry">
                        <mxPoint x="890" y="280" as="targetPoint"/>
                        <Array as="points">
                            <mxPoint x="890" y="730"/>
                        </Array>
                    </mxGeometry>
                </mxCell>
                <mxCell id="23" value="模版语言" style="shape=trapezoid;perimeter=trapezoidPerimeter;whiteSpace=wrap;html=1;fixedSize=1;" vertex="1" parent="1">
                    <mxGeometry x="605" y="700" width="120" height="60" as="geometry"/>
                </mxCell>
                <mxCell id="40" value="" style="ellipse;shape=cloud;whiteSpace=wrap;html=1;dashed=1;" vertex="1" parent="1">
                    <mxGeometry x="1250" y="190" width="390" height="290" as="geometry"/>
                </mxCell>
                <mxCell id="55" style="edgeStyle=orthogonalEdgeStyle;rounded=0;orthogonalLoop=1;jettySize=auto;html=1;exitX=0.75;exitY=0;exitDx=0;exitDy=0;" edge="1" parent="1" source="41" target="53">
                    <mxGeometry relative="1" as="geometry"/>
                </mxCell>
                <mxCell id="41" value="浏览器&lt;br&gt;只拿到&lt;br&gt;静态的网页&lt;br&gt;&lt;br&gt;页面很可能不跳转" style="rounded=0;whiteSpace=wrap;html=1;" vertex="1" parent="1">
                    <mxGeometry x="1800" y="70" width="120" height="290" as="geometry"/>
                </mxCell>
                <mxCell id="42" value="" style="shape=flexArrow;endArrow=classic;html=1;entryX=0;entryY=0.5;entryDx=0;entryDy=0;exitX=0.875;exitY=0.5;exitDx=0;exitDy=0;exitPerimeter=0;" edge="1" parent="1" source="48" target="41">
                    <mxGeometry width="50" height="50" relative="1" as="geometry">
                        <mxPoint x="1670" y="360" as="sourcePoint"/>
                        <mxPoint x="1720" y="310" as="targetPoint"/>
                    </mxGeometry>
                </mxCell>
                <mxCell id="43" value="异步后，&lt;br&gt;修改网页" style="edgeStyle=orthogonalEdgeStyle;rounded=0;orthogonalLoop=1;jettySize=auto;html=1;entryX=1;entryY=0.5;entryDx=0;entryDy=0;" edge="1" parent="1" source="44" target="41">
                    <mxGeometry relative="1" as="geometry">
                        <Array as="points">
                            <mxPoint x="2010" y="500"/>
                            <mxPoint x="2010" y="215"/>
                        </Array>
                    </mxGeometry>
                </mxCell>
                <mxCell id="44" value="异步请求" style="shape=process;whiteSpace=wrap;html=1;backgroundOutline=1;" vertex="1" parent="1">
                    <mxGeometry x="1800" y="360" width="120" height="230" as="geometry"/>
                </mxCell>
                <mxCell id="45" value="" style="endArrow=classic;startArrow=classic;html=1;entryX=0;entryY=0.5;entryDx=0;entryDy=0;exitX=0.875;exitY=0.5;exitDx=0;exitDy=0;exitPerimeter=0;" edge="1" parent="1" source="49" target="44">
                    <mxGeometry width="50" height="50" relative="1" as="geometry">
                        <mxPoint x="1690" y="430" as="sourcePoint"/>
                        <mxPoint x="1740" y="380" as="targetPoint"/>
                    </mxGeometry>
                </mxCell>
                <mxCell id="46" value="数据" style="edgeLabel;html=1;align=center;verticalAlign=middle;resizable=0;points=[];" vertex="1" connectable="0" parent="45">
                    <mxGeometry x="-0.312" y="-2" relative="1" as="geometry">
                        <mxPoint as="offset"/>
                    </mxGeometry>
                </mxCell>
                <mxCell id="48" value="&lt;span&gt;静态文件托管&lt;/span&gt;&lt;br&gt;&lt;span&gt;server&lt;/span&gt;" style="ellipse;shape=cloud;whiteSpace=wrap;html=1;" vertex="1" parent="1">
                    <mxGeometry x="1360" y="260" width="120" height="80" as="geometry"/>
                </mxCell>
                <mxCell id="49" value="接口&lt;br&gt;server" style="ellipse;shape=cloud;whiteSpace=wrap;html=1;" vertex="1" parent="1">
                    <mxGeometry x="1370" y="360" width="120" height="80" as="geometry"/>
                </mxCell>
                <mxCell id="50" style="edgeStyle=orthogonalEdgeStyle;rounded=0;orthogonalLoop=1;jettySize=auto;html=1;exitX=1;exitY=0.75;exitDx=0;exitDy=0;entryX=1;entryY=0.25;entryDx=0;entryDy=0;" edge="1" parent="1" source="41" target="41">
                    <mxGeometry relative="1" as="geometry">
                        <Array as="points">
                            <mxPoint x="2070" y="288"/>
                            <mxPoint x="2070" y="143"/>
                        </Array>
                    </mxGeometry>
                </mxCell>
                <mxCell id="51" value="前端程序，&lt;br&gt;自己变动样式" style="edgeLabel;html=1;align=center;verticalAlign=middle;resizable=0;points=[];" vertex="1" connectable="0" parent="50">
                    <mxGeometry x="0.1513" y="-4" relative="1" as="geometry">
                        <mxPoint as="offset"/>
                    </mxGeometry>
                </mxCell>
                <mxCell id="52" value="纯前端" style="text;html=1;strokeColor=none;fillColor=none;align=center;verticalAlign=middle;whiteSpace=wrap;rounded=0;dashed=1;" vertex="1" parent="1">
                    <mxGeometry x="1800" y="40" width="40" height="20" as="geometry"/>
                </mxCell>
                <mxCell id="56" style="edgeStyle=orthogonalEdgeStyle;rounded=0;orthogonalLoop=1;jettySize=auto;html=1;" edge="1" parent="1" source="53">
                    <mxGeometry relative="1" as="geometry">
                        <mxPoint x="2230" y="70" as="targetPoint"/>
                    </mxGeometry>
                </mxCell>
                <mxCell id="53" value="vue&lt;br&gt;&lt;br&gt;react&lt;br&gt;&lt;br&gt;小程序" style="text;html=1;fillColor=none;align=center;verticalAlign=middle;whiteSpace=wrap;rounded=0;strokeColor=#000000;" vertex="1" parent="1">
                    <mxGeometry x="2120" y="20" width="40" height="100" as="geometry"/>
                </mxCell>
                <mxCell id="58" value="&lt;span&gt;web App&lt;/span&gt;" style="shape=cube;whiteSpace=wrap;html=1;boundedLbl=1;backgroundOutline=1;darkOpacity=0.05;darkOpacity2=0.1;strokeColor=#000000;" vertex="1" parent="1">
                    <mxGeometry x="2230" y="30" width="120" height="80" as="geometry"/>
                </mxCell>
                <mxCell id="60" value="cms" style="shape=cube;whiteSpace=wrap;html=1;boundedLbl=1;backgroundOutline=1;darkOpacity=0.05;darkOpacity2=0.1;strokeColor=#000000;size=30;" vertex="1" parent="1">
                    <mxGeometry x="250" y="910" width="210" height="150" as="geometry"/>
                </mxCell>
                <mxCell id="66" style="edgeStyle=orthogonalEdgeStyle;rounded=0;orthogonalLoop=1;jettySize=auto;html=1;entryX=0;entryY=0;entryDx=0;entryDy=60;entryPerimeter=0;" edge="1" parent="1" source="61" target="60">
                    <mxGeometry relative="1" as="geometry">
                        <Array as="points">
                            <mxPoint x="220" y="970"/>
                        </Array>
                    </mxGeometry>
                </mxCell>
                <mxCell id="61" value="web 框架&lt;br&gt;模版语言" style="shape=cube;whiteSpace=wrap;html=1;boundedLbl=1;backgroundOutline=1;darkOpacity=0.05;darkOpacity2=0.1;strokeColor=#000000;size=10;" vertex="1" parent="1">
                    <mxGeometry x="190" y="770" width="120" height="80" as="geometry"/>
                </mxCell>
                <mxCell id="65" style="edgeStyle=orthogonalEdgeStyle;rounded=0;orthogonalLoop=1;jettySize=auto;html=1;" edge="1" parent="1" source="62" target="60">
                    <mxGeometry relative="1" as="geometry">
                        <Array as="points">
                            <mxPoint x="110" y="980"/>
                        </Array>
                    </mxGeometry>
                </mxCell>
                <mxCell id="62" value="server 框架" style="shape=cube;whiteSpace=wrap;html=1;boundedLbl=1;backgroundOutline=1;darkOpacity=0.05;darkOpacity2=0.1;strokeColor=#000000;size=10;" vertex="1" parent="1">
                    <mxGeometry x="50" y="770" width="120" height="80" as="geometry"/>
                </mxCell>
                <mxCell id="63" value="http的包" style="shape=cube;whiteSpace=wrap;html=1;boundedLbl=1;backgroundOutline=1;darkOpacity=0.05;darkOpacity2=0.1;strokeColor=#000000;size=0;" vertex="1" parent="1">
                    <mxGeometry x="-90" y="770" width="120" height="80" as="geometry"/>
                </mxCell>
                <mxCell id="64" value="" style="endArrow=classic;html=1;" edge="1" parent="1">
                    <mxGeometry width="50" height="50" relative="1" as="geometry">
                        <mxPoint x="-90" y="870" as="sourcePoint"/>
                        <mxPoint x="692.5" y="870" as="targetPoint"/>
                    </mxGeometry>
                </mxCell>
                <mxCell id="68" style="edgeStyle=orthogonalEdgeStyle;rounded=0;orthogonalLoop=1;jettySize=auto;html=1;entryX=0;entryY=0;entryDx=90;entryDy=0;entryPerimeter=0;" edge="1" parent="1" source="67" target="60">
                    <mxGeometry relative="1" as="geometry"/>
                </mxCell>
                <mxCell id="67" value="数据库" style="shape=cylinder3;whiteSpace=wrap;html=1;boundedLbl=1;backgroundOutline=1;size=15;strokeColor=#000000;" vertex="1" parent="1">
                    <mxGeometry x="340" y="770" width="60" height="80" as="geometry"/>
                </mxCell>
                <mxCell id="69" value="" style="endArrow=classic;html=1;" edge="1" parent="1">
                    <mxGeometry width="50" height="50" relative="1" as="geometry">
                        <mxPoint x="460" y="990" as="sourcePoint"/>
                        <mxPoint x="630" y="870" as="targetPoint"/>
                    </mxGeometry>
                </mxCell>
                <mxCell id="70" value="快速的实现一个webstie，快速编辑内容，保存内容" style="text;html=1;align=center;verticalAlign=middle;resizable=0;points=[];autosize=1;" vertex="1" parent="1">
                    <mxGeometry x="240" y="1070" width="280" height="20" as="geometry"/>
                </mxCell>
                <mxCell id="71" value="xxx网站" style="shape=card;whiteSpace=wrap;html=1;strokeColor=#000000;" vertex="1" parent="1">
                    <mxGeometry x="690" y="820" width="80" height="100" as="geometry"/>
                </mxCell>
                <UserObject label="cms 概念" link="https://baike.baidu.com/item/%E5%86%85%E5%AE%B9%E7%AE%A1%E7%90%86%E7%B3%BB%E7%BB%9F/2683135?fromtitle=CMS&amp;fromid=315935" id="73">
                    <mxCell style="text;html=1;strokeColor=none;fillColor=none;whiteSpace=wrap;align=center;verticalAlign=middle;fontColor=#0000EE;fontStyle=4;" vertex="1" parent="1">
                        <mxGeometry x="384" y="1010" width="60" height="40" as="geometry"/>
                    </mxCell>
                </UserObject>
                <mxCell id="77" style="edgeStyle=orthogonalEdgeStyle;rounded=0;orthogonalLoop=1;jettySize=auto;html=1;entryX=0.16;entryY=0.55;entryDx=0;entryDy=0;entryPerimeter=0;" edge="1" parent="1" source="74" target="49">
                    <mxGeometry relative="1" as="geometry"/>
                </mxCell>
                <mxCell id="74" value="server 框架" style="shape=cube;whiteSpace=wrap;html=1;boundedLbl=1;backgroundOutline=1;darkOpacity=0.05;darkOpacity2=0.1;strokeColor=#000000;size=10;" vertex="1" parent="1">
                    <mxGeometry x="1220" y="500" width="120" height="80" as="geometry"/>
                </mxCell>
                <mxCell id="78" style="edgeStyle=orthogonalEdgeStyle;rounded=0;orthogonalLoop=1;jettySize=auto;html=1;entryX=0.16;entryY=0.55;entryDx=0;entryDy=0;entryPerimeter=0;" edge="1" parent="1" source="75" target="49">
                    <mxGeometry relative="1" as="geometry"/>
                </mxCell>
                <mxCell id="75" value="cms" style="shape=cube;whiteSpace=wrap;html=1;boundedLbl=1;backgroundOutline=1;darkOpacity=0.05;darkOpacity2=0.1;strokeColor=#000000;size=10;" vertex="1" parent="1">
                    <mxGeometry x="1220" y="610" width="120" height="80" as="geometry"/>
                </mxCell>
                <mxCell id="79" style="edgeStyle=orthogonalEdgeStyle;rounded=0;orthogonalLoop=1;jettySize=auto;html=1;entryX=0.16;entryY=0.55;entryDx=0;entryDy=0;entryPerimeter=0;" edge="1" parent="1" source="76" target="49">
                    <mxGeometry relative="1" as="geometry"/>
                </mxCell>
                <mxCell id="76" value="http" style="shape=cube;whiteSpace=wrap;html=1;boundedLbl=1;backgroundOutline=1;darkOpacity=0.05;darkOpacity2=0.1;strokeColor=#000000;size=10;" vertex="1" parent="1">
                    <mxGeometry x="1220" y="720" width="120" height="80" as="geometry"/>
                </mxCell>
                <mxCell id="88" style="edgeStyle=orthogonalEdgeStyle;rounded=0;orthogonalLoop=1;jettySize=auto;html=1;entryX=0.5;entryY=1;entryDx=0;entryDy=0;" edge="1" parent="1" source="80" target="86">
                    <mxGeometry relative="1" as="geometry"/>
                </mxCell>
                <mxCell id="80" value="cms" style="shape=cube;whiteSpace=wrap;html=1;boundedLbl=1;backgroundOutline=1;darkOpacity=0.05;darkOpacity2=0.1;strokeColor=#000000;size=30;" vertex="1" parent="1">
                    <mxGeometry x="80" y="1360" width="210" height="150" as="geometry"/>
                </mxCell>
                <mxCell id="83" style="edgeStyle=orthogonalEdgeStyle;rounded=0;orthogonalLoop=1;jettySize=auto;html=1;" edge="1" parent="1" source="81" target="82">
                    <mxGeometry relative="1" as="geometry"/>
                </mxCell>
                <mxCell id="81" value="DB" style="shape=cylinder3;whiteSpace=wrap;html=1;boundedLbl=1;backgroundOutline=1;size=15;strokeColor=#000000;" vertex="1" parent="1">
                    <mxGeometry x="90" y="1190" width="60" height="80" as="geometry"/>
                </mxCell>
                <mxCell id="87" style="edgeStyle=orthogonalEdgeStyle;rounded=0;orthogonalLoop=1;jettySize=auto;html=1;entryX=0.5;entryY=0;entryDx=0;entryDy=0;" edge="1" parent="1" source="82" target="86">
                    <mxGeometry relative="1" as="geometry"/>
                </mxCell>
                <mxCell id="82" value="orm" style="shape=step;perimeter=stepPerimeter;whiteSpace=wrap;html=1;fixedSize=1;strokeColor=#000000;" vertex="1" parent="1">
                    <mxGeometry x="210" y="1200" width="120" height="80" as="geometry"/>
                </mxCell>
                <mxCell id="84" value="" style="endArrow=classic;startArrow=classic;html=1;entryX=0.5;entryY=1;entryDx=0;entryDy=0;" edge="1" parent="1" source="80" target="82">
                    <mxGeometry width="50" height="50" relative="1" as="geometry">
                        <mxPoint x="220" y="1350" as="sourcePoint"/>
                        <mxPoint x="270" y="1300" as="targetPoint"/>
                    </mxGeometry>
                </mxCell>
                <mxCell id="85" value="" style="endArrow=classic;startArrow=classic;html=1;entryX=0.5;entryY=1;entryDx=0;entryDy=0;entryPerimeter=0;exitX=0;exitY=0;exitDx=90;exitDy=0;exitPerimeter=0;" edge="1" parent="1" source="80" target="81">
                    <mxGeometry width="50" height="50" relative="1" as="geometry">
                        <mxPoint x="-50" y="1370" as="sourcePoint"/>
                        <mxPoint y="1320" as="targetPoint"/>
                    </mxGeometry>
                </mxCell>
                <mxCell id="89" style="edgeStyle=orthogonalEdgeStyle;rounded=0;orthogonalLoop=1;jettySize=auto;html=1;exitX=1;exitY=0.5;exitDx=0;exitDy=0;" edge="1" parent="1" source="86">
                    <mxGeometry relative="1" as="geometry">
                        <mxPoint x="570" y="1330" as="targetPoint"/>
                    </mxGeometry>
                </mxCell>
                <mxCell id="86" value="模版语言" style="shape=trapezoid;perimeter=trapezoidPerimeter;whiteSpace=wrap;html=1;fixedSize=1;strokeColor=#000000;" vertex="1" parent="1">
                    <mxGeometry x="350" y="1300" width="120" height="60" as="geometry"/>
                </mxCell>
                <mxCell id="90" value="网页&lt;br&gt;网站" style="shape=card;whiteSpace=wrap;html=1;strokeColor=#000000;" vertex="1" parent="1">
                    <mxGeometry x="580" y="1270" width="80" height="100" as="geometry"/>
                </mxCell>
                <mxCell id="92" style="edgeStyle=orthogonalEdgeStyle;rounded=0;orthogonalLoop=1;jettySize=auto;html=1;entryX=0;entryY=0;entryDx=0;entryDy=60;entryPerimeter=0;" edge="1" parent="1" source="91" target="80">
                    <mxGeometry relative="1" as="geometry">
                        <Array as="points">
                            <mxPoint x="-30" y="1420"/>
                        </Array>
                    </mxGeometry>
                </mxCell>
                <mxCell id="91" value="php&lt;br&gt;&lt;br&gt;wordpass&lt;br&gt;&lt;br&gt;论坛、博客" style="rounded=0;whiteSpace=wrap;html=1;strokeColor=#000000;" vertex="1" parent="1">
                    <mxGeometry x="-90" y="1570" width="120" height="100" as="geometry"/>
                </mxCell>
                <mxCell id="94" style="edgeStyle=orthogonalEdgeStyle;rounded=0;orthogonalLoop=1;jettySize=auto;html=1;exitX=0.5;exitY=0;exitDx=0;exitDy=0;" edge="1" parent="1" source="93" target="80">
                    <mxGeometry relative="1" as="geometry"/>
                </mxCell>
                <mxCell id="93" value="python&lt;br&gt;&lt;br&gt;Django，flask&lt;br&gt;&lt;br&gt;网站，博客" style="rounded=0;whiteSpace=wrap;html=1;strokeColor=#000000;" vertex="1" parent="1">
                    <mxGeometry x="50" y="1570" width="120" height="100" as="geometry"/>
                </mxCell>
                <mxCell id="96" style="edgeStyle=orthogonalEdgeStyle;rounded=0;orthogonalLoop=1;jettySize=auto;html=1;entryX=0;entryY=0;entryDx=120;entryDy=150;entryPerimeter=0;" edge="1" parent="1" source="95" target="80">
                    <mxGeometry relative="1" as="geometry"/>
                </mxCell>
                <mxCell id="95" value="java / jsp&lt;br&gt;&lt;br&gt;tomcat、&lt;br&gt;&lt;br&gt;网站，作接口" style="rounded=0;whiteSpace=wrap;html=1;strokeColor=#000000;" vertex="1" parent="1">
                    <mxGeometry x="190" y="1570" width="120" height="100" as="geometry"/>
                </mxCell>
                <mxCell id="97" value="keystone.js" style="shape=cube;whiteSpace=wrap;html=1;boundedLbl=1;backgroundOutline=1;darkOpacity=0.05;darkOpacity2=0.1;strokeColor=#000000;" vertex="1" parent="1">
                    <mxGeometry x="420" y="1450" width="120" height="80" as="geometry"/>
                </mxCell>
                <mxCell id="98" value="hexo&lt;br&gt;&lt;br&gt;博客" style="shape=cube;whiteSpace=wrap;html=1;boundedLbl=1;backgroundOutline=1;darkOpacity=0.05;darkOpacity2=0.1;strokeColor=#000000;" vertex="1" parent="1">
                    <mxGeometry x="420" y="1550" width="120" height="80" as="geometry"/>
                </mxCell>
                <mxCell id="100" value="node的cms" style="text;html=1;strokeColor=none;fillColor=none;align=center;verticalAlign=middle;whiteSpace=wrap;rounded=0;" vertex="1" parent="1">
                    <mxGeometry x="580" y="1470" width="60" height="30" as="geometry"/>
                </mxCell>
                <mxCell id="102" style="edgeStyle=orthogonalEdgeStyle;rounded=0;orthogonalLoop=1;jettySize=auto;html=1;entryX=0.5;entryY=1;entryDx=0;entryDy=0;" edge="1" parent="1" source="101" target="53">
                    <mxGeometry relative="1" as="geometry"/>
                </mxCell>
                <mxCell id="101" value="&lt;br&gt;核心概念：&lt;br&gt;&lt;br&gt;异步请求&lt;br&gt;&lt;br&gt;前端自己刷新自己" style="text;html=1;fillColor=none;align=center;verticalAlign=middle;whiteSpace=wrap;rounded=0;strokeColor=#000000;" vertex="1" parent="1">
                    <mxGeometry x="2190" y="190" width="150" height="110" as="geometry"/>
                </mxCell>
            </root>
        </mxGraphModel>
    </diagram>
</mxfile>